<?xml version="1.0" encoding="utf-8"?>
<!-- Generator: Adobe Illustrator 24.1.2, SVG Export Plug-In . SVG Version: 6.00 Build 0)  -->
<svg version="1.1" id="Camada_1" xmlns="http://www.w3.org/2000/svg" xmlns:xlink="http://www.w3.org/1999/xlink" x="0px" y="0px"
	 viewBox="0 0 300 300" style="enable-background:new 0 0 300 300;" xml:space="preserve">
<style type="text/css">
	.st0{fill:#F8B132;}
	.st1{fill:#FFFFFF;}
	.st2{fill:#BC9556;}
	.st3{fill:#332222;}
</style>
<path class="st0" d="M267.9,299.7H32.1C14.3,299.7,0,285.3,0,267.6V31.7C0,14,14.3-0.3,32.1-0.3h235.9C285.7-0.3,300,14,300,31.7
	v235.9C300,285.3,285.7,299.7,267.9,299.7z"/>
<g>
	<rect x="95.2" y="96" class="st1" width="108.8" height="115.9"/>
	<path class="st2" d="M235.9,78c-10.3-20.4-26.7-33.9-49.2-40.7c-15.4-4.5-30.5-4.3-45.2,0.5c-14.8,4.8-27.5,13-38.2,24.5
		C92.7,74,83.3,87.5,75.2,103c-8.1,15.5-13.4,31.9-15.8,49c-2.4,17.1-2.7,33.4-0.8,48.7c1.9,15.4,7.4,29,16.5,41
		c9.2,12,21.2,20.4,36.2,25.2c22.5,6.3,44.1,4,64.7-7c20.6-11,36.4-27.2,47.4-48.6c11-21.3,18.4-43.8,22.3-67.4
		C249.5,120.4,246.3,98.4,235.9,78z M135.1,123.4c0.3-6.2,2.8-12.9,6.6-15c1-0.5,2-0.8,3.1-0.6c0.1,0,0.3,0,0.4,0
		c5.3,1,10.8,6.2,10.7,15.3c0,5.6-1.7,10.7-4.4,13.6c-0.4,0.4-0.9,0.8-1.3,1.2c-0.1,0.1-0.3,0.1-0.5,0.2c-0.4,0.1-0.8,0.1-1.2,0
		c-0.4-0.1-0.9-0.3-1.2-0.6c-0.9-0.3-1.9-0.4-3-0.1c-0.2,0-0.4,0.1-0.5,0.2c-0.3,0.1-0.6,0.2-0.9,0.4c-0.7,0.2-1.5,0.1-2.1-0.3
		c-0.2-0.2-0.5-0.4-0.7-0.6c-3.1-2.7-5.3-7.5-5.1-13L135.1,123.4z M124.9,144.9c-0.9,0-1.9,0.3-2.8,0.8c-0.1,0.1-0.3,0.2-0.5,0.3
		c-0.2,0.2-0.5,0.4-0.7,0.6c-0.6,0.4-1.4,0.5-2,0.4c-0.3-0.1-0.6-0.2-0.8-0.3c-1.2-0.5-2.5-1.3-3.6-2.3c-2.2-1.9-4.1-4.7-5.1-8.1
		c-1.8-5.9-1.7-13.3,1.3-16.5c0,0,0,0,0,0c0.7-0.8,1.6-1.3,2.7-1.5c0.1,0,0.2,0,0.4-0.1c2.8-0.4,6,0.3,8.9,2.5
		c2.4,1.7,4.5,4.5,5.7,8.4c1.7,5.2,1.7,10.4,0.1,13.9c-0.2,0.5-0.5,1-0.8,1.5c-0.1,0.1-0.2,0.2-0.4,0.3c-0.3,0.2-0.7,0.4-1.1,0.4
		C125.8,145.1,125.3,145.1,124.9,144.9z M171.5,171c-0.5,2.5-0.9,5.2-1.1,7.9c0.1,1.1,0.2,2.1,0.2,3.3c0,0.3,0,0.5,0,0.8
		c-0.1,1.1-0.2,2.2-0.4,3.3c-1.3,6-5.1,11.1-10.2,14.2c-3.7,2.3-8,3.5-12.6,3.3c-2.8-0.2-5.4-0.8-7.9-1.7
		c-11.3-8-11.2-6.1-12.9-16.3c-0.1-0.6-0.9-6.6-0.8-7.3c-0.6-1.9,0.1-2.6,0.2-4.7c0.1-1.7-0.5-4.5,0-6c-0.4-1.6-0.5-3.3-0.4-5.1
		c0.2-2.9,1-5.7,2.4-8.1c7.5-4.7,6.4-6.6,12.1-8.8c1-0.4,7-2.7,11.2-0.4c2.3,1.3,7.2,2.7,11.3,2.9c4.4,0.2,7.5,4.7,10.3,8
		c0.8,1.6,1.3,3.5,1.4,5.4c0,0.5,0,1.1,0,1.6C173.9,166.4,173,168.9,171.5,171z M191.1,131.7c-1.9,6.3-5.2,11.6-9.1,14.5
		c-0.4,0.3-0.9,0.6-1.3,0.9c-0.7,0.4-1.3,0.7-2,1c-0.2,0-0.5,0-0.7,0c-0.6,0-1.1-0.2-1.5-0.4c-0.5-0.3-1-0.7-1.3-1.2
		c-1-0.7-2.3-1.2-3.7-1.2c-0.3,0-0.5,0-0.7,0c-0.4,0-0.8,0.1-1.2,0.2l-0.1,0c-1-0.1-1.8-0.4-2.4-1c-0.2-0.3-0.5-0.6-0.7-1
		c-2.9-4.5-3.9-11.2-1.7-18c1.3-3.9,3.3-7.9,5.8-11.1c2.5-3.2,5.3-5.5,8.2-6.1c1.1-0.2,2.1-0.2,3.1,0c0.3,0.1,0.7,0.2,1,0.4
		c0.1,0.1,0.3,0.1,0.4,0.2C189.5,111.8,194.5,120.3,191.1,131.7z"/>
	<path class="st3" d="M233.5,75.5c-10.3-20.4-26.7-33.9-49.2-40.7c-15.4-4.5-30.5-4.3-45.2,0.5c-14.8,4.8-27.5,13-38.2,24.5
		c-10.6,11.6-20,25.1-28.2,40.7c-8.1,15.5-13.4,31.9-15.8,49c-2.4,17.1-2.7,33.4-0.8,48.7c1.9,15.4,7.4,29,16.5,41
		c9.2,12,21.2,20.4,36.2,25.2c22.5,6.3,44.1,4,64.7-7c20.6-11,36.4-27.2,47.4-48.6c11-21.3,18.4-43.8,22.3-67.4
		C247,117.9,243.8,95.9,233.5,75.5z M132.6,120.9c0.3-6.2,2.8-12.9,6.6-15c1-0.5,2-0.8,3.1-0.6c0.1,0,0.3,0,0.4,0
		c5.3,1,10.8,6.2,10.7,15.3c0,5.6-1.7,10.7-4.4,13.6c-0.4,0.4-0.9,0.8-1.3,1.2c-0.1,0.1-0.3,0.1-0.5,0.2c-0.4,0.1-0.8,0.1-1.2,0
		c-0.4-0.1-0.9-0.3-1.2-0.6c-0.9-0.3-1.9-0.4-3-0.1c-0.2,0-0.4,0.1-0.5,0.2c-0.3,0.1-0.6,0.2-0.9,0.4c-0.7,0.2-1.5,0.1-2.1-0.3
		c-0.2-0.2-0.5-0.4-0.7-0.6c-3.1-2.7-5.3-7.5-5.1-13L132.6,120.9z M122.4,142.4c-0.9,0-1.9,0.3-2.8,0.8c-0.1,0.1-0.3,0.2-0.5,0.3
		c-0.2,0.2-0.5,0.4-0.7,0.6c-0.6,0.4-1.4,0.5-2,0.4c-0.3-0.1-0.6-0.2-0.8-0.3c-1.2-0.5-2.5-1.3-3.6-2.3c-2.2-1.9-4.1-4.7-5.1-8.1
		c-1.8-5.9-1.7-13.3,1.3-16.5c0,0,0,0,0,0c0.7-0.8,1.6-1.3,2.7-1.5c0.1,0,0.2,0,0.4-0.1c2.8-0.4,6,0.3,8.9,2.5
		c2.4,1.7,4.5,4.5,5.7,8.4c1.7,5.2,1.7,10.4,0.1,13.9c-0.2,0.5-0.5,1-0.8,1.5c-0.1,0.1-0.2,0.2-0.4,0.3c-0.3,0.2-0.7,0.4-1.1,0.4
		C123.3,142.6,122.8,142.6,122.4,142.4z M169,168.5c-0.5,2.5-0.9,5.2-1.1,7.9c0.1,1.1,0.2,2.1,0.2,3.3c0,0.3,0,0.5,0,0.8
		c-0.1,1.1-0.2,2.2-0.4,3.3c-1.3,6-5.1,11.1-10.2,14.2c-3.7,2.3-8,3.5-12.6,3.3c-2.8-0.2-5.4-0.8-7.9-1.7
		c-11.3-8-11.2-6.1-12.9-16.3c-0.1-0.6-0.9-6.6-0.8-7.3c-0.6-1.9,0.1-2.6,0.2-4.7c0.1-1.7-0.5-4.5,0-6c-0.4-1.6-0.5-3.3-0.4-5.1
		c0.2-2.9,1-5.7,2.4-8.1c7.5-4.7,6.4-6.6,12.1-8.8c1-0.4,7-2.7,11.2-0.4c2.3,1.3,7.2,2.7,11.3,2.9c4.4,0.2,7.5,4.7,10.3,8
		c0.8,1.6,1.3,3.5,1.4,5.4c0,0.5,0,1.1,0,1.6C171.4,163.9,170.5,166.4,169,168.5z M188.6,129.2c-1.9,6.3-5.2,11.6-9.1,14.5
		c-0.4,0.3-0.9,0.6-1.3,0.9c-0.7,0.4-1.3,0.7-2,1c-0.2,0-0.5,0-0.7,0c-0.6,0-1.1-0.2-1.5-0.4c-0.5-0.3-1-0.7-1.3-1.2
		c-1-0.7-2.3-1.2-3.7-1.2c-0.3,0-0.5,0-0.7,0c-0.4,0-0.8,0.1-1.2,0.2l-0.1,0c-1-0.1-1.8-0.4-2.4-1c-0.2-0.3-0.5-0.6-0.7-1
		c-2.9-4.5-3.9-11.2-1.7-18c1.3-3.9,3.3-7.9,5.8-11.1c2.5-3.2,5.3-5.5,8.2-6.1c1.1-0.2,2.1-0.2,3.1,0c0.3,0.1,0.7,0.2,1,0.4
		c0.1,0.1,0.3,0.1,0.4,0.2C187,109.3,192,117.8,188.6,129.2z"/>
</g>
</svg>
